<svg height="23" width="41" xmlns="http://www.w3.org/2000/svg"><g fill="none" fill-rule="evenodd"><path d="M15.4 6.4c-1.8 0-8.3 0-12.7.1-.7 0-1.3.6-1.4 1.4V8c0 .3.1.6.3.8.3.2.7.4 1.1.4h13c-.1-.7-.2-1.7-.3-2.8zm2.5 5.4c0-1.3-1.3-1.4-1.6-1.4H12c-.7.1-1.3.8-1.2 1.5.1.6.5 1.1 1.1 1.2h4.2c.5 0 1-.2 1.4-.5.3-.2.4-.5.4-.8zm0 3.9c.1-.6-.3-1.2-.9-1.3h-4.3c-.5 0-1 .6-1 1.3-.1.6.4 1.2 1 1.3l3.8.1c.4 0 .7-.1 1-.3.3-.4.5-.7.4-1.1zm.9 3.7c0-.3-.1-.6-.3-.8-.3-.2-.7-.4-1.1-.4h-4c-.6.1-1.1.7-1 1.3.1.5.5.9 1 1 .7 0 1.5.1 2.4.1.4 0 .7 0 1.1.1.4 0 1.9-.1 1.9-1.3zm14 .7h6.8V5.6h-6.8zm4.5-2.2c0 .6-.5 1.2-1.2 1.2-.6 0-1.2-.5-1.2-1.2s.5-1.2 1.2-1.2c.7.1 1.2.6 1.2 1.2z"/><path d="M16.7 4.6c-.1 1.6 0 3.2.3 4.7.8.1 1.4.5 1.9 1.2.3-.2.4-.5.3-.8.1-1.2.3-2.4.6-3.6.1-.3.4-.5.7-.4.2.1.4.2.4.4.2.8.7 1.5 1.3 2 .3.2.4.6.2.8s-.6.4-.8.2c-.4-.3-.7-.6-1-1-.1.5-.2 1.1-.2 1.6.1.9-.4 1.7-1.2 2v.1c0 .6-.2 1.2-.7 1.7l-.2.2.1.1c.5.5.8 1.2.8 2 0 .6-.1 1.1-.5 1.6.8.4 1.4 1.2 1.3 2.1 0 .5-.1 1-.4 1.4 3 0 6.1-.1 6.9-1.1 1.5-1.7 3.9-1.8 5.2-1.8V7.7h-2.2c-.9 0-3.7-3.5-4.3-4.3-2.3-.9-5.1-1.8-5.8-1.6-1.4.3-2.5 1.4-2.7 2.8z"/><g fill="#fefffa" fill-rule="nonzero"><circle cx="36.2" cy="17.9" r="1.2"/><path d="M15.5 4.4c0 .3-.1.5-.1.8-2.3 0-9.4.1-12.7.2C1.3 5.4.1 6.5.1 7.9c0 .6.2 1.2.7 1.7s1.2.8 1.9.8H10c-.2.4-.4.9-.4 1.4 0 1 .5 1.9 1.4 2.3-.3.5-.5 1-.5 1.6 0 .9.4 1.8 1.2 2.2-.3.4-.5 1-.5 1.5 0 1.3.9 2.3 2.2 2.4.7 0 1.5.1 2.4.1.4 0 .8 0 1.1.1h.1c4.9.2 9 .1 10.3-1.4 1.2-1.3 3.3-1.4 4.2-1.3v1.6c0 .3.3.6.6.6h8c.3 0 .6-.3.6-.6V5c0-.3-.3-.6-.6-.6h-8c-.3 0-.6.3-.6.6v1.5h-2.1C28.2 5.3 27 4 26 2.5c-.1-.1-.2-.2-.3-.2-1.2-.5-5.4-2.1-6.8-1.7-1.7.5-3.1 2-3.4 3.8zM1.7 8.7c-.2-.2-.4-.5-.4-.8v-.1c0-.8.7-1.3 1.4-1.3 4.4-.1 10.9-.1 12.7-.1 0 1.1.2 2.1.3 2.8h-13c-.4 0-.8-.2-1-.5zm14.5 4.4H12c-.7-.1-1.2-.8-1.1-1.5.1-.6.6-1.1 1.2-1.1h4.4c.3 0 1.6.1 1.6 1.4 0 .3-.1.6-.3.8-.6.2-1.1.4-1.6.4zm.3 3.9h-3.8c-.6-.1-1-.7-1-1.3 0-.7.5-1.3 1-1.3h3.9c.6-.1 1.2.4 1.3 1v.4c0 .4-.1.8-.4 1-.2.1-.6.3-1 .2zm-.6 3.7c-.9 0-1.7-.1-2.4-.1-.6-.1-1.1-.7-1-1.3.1-.5.5-.9 1-1h4c.4 0 .8.1 1.1.4.2.2.3.5.3.8 0 1.2-1.5 1.3-1.7 1.3-.6-.1-1-.1-1.3-.1zM39.6 5.6v14.5h-6.8V5.6zM25.1 3.4c.6.8 3.3 4.3 4.3 4.3h2.2V18c-1.2-.1-3.7 0-5.2 1.8-.8 1-3.9 1.2-6.9 1.1.3-.4.4-.9.4-1.4.1-.9-.5-1.8-1.3-2.1.3-.5.5-1 .5-1.6 0-.7-.2-1.4-.8-2l-.1-.1.2-.2c.4-.4.7-1 .7-1.7v-.1c.8-.3 1.3-1.1 1.2-2 0-.5.1-1.1.2-1.6.3.4.6.7 1 1 .3.2.6.1.8-.2s.1-.6-.2-.8c-.6-.5-1-1.2-1.3-2-.1-.3-.4-.5-.7-.4-.2.1-.3.2-.4.4-.3 1.2-.5 2.4-.6 3.6 0 .3-.1.6-.3.8-.4-.6-1.1-1.1-1.9-1.2-.3-1.6-.3-3.2-.3-4.7.3-1.4 1.3-2.4 2.7-2.8.7-.2 3.5.7 5.8 1.6z"/></g></g></svg>