<svg viewBox="0 0 3628.3 2437.8" xmlns="http://www.w3.org/2000/svg"><path d="M0 0h3628.3v2437.8H0z" fill="#f7c8bc"/><path d="M867.3 1075.4h-64.8L683.9 895.9h-80.8v179.6h-54.5v-449h155.2c39.3 0 72.9 11.8 100.7 35.3s41.7 55.6 41.7 96.2c0 32.9-9.4 61-28.2 84.3s-42.8 39.2-71.8 47.8zM603.1 679.1v164.2h94.3c24.8 0 46.4-7.3 64.8-21.8s27.6-35.7 27.6-63.5c0-27.4-9-47.3-26.9-60-18-12.6-39.8-18.9-65.4-18.9zm360.1 117c29.7-29.7 65.5-44.6 107.4-44.6S1148 767 1177.1 798s42.1 74.9 39.1 131.8H973.8c2.6 29.9 12.6 53.5 30.1 70.9 17.5 17.3 40 26 67.3 26 35.9 0 62.2-13.7 78.9-41h59c-12 28.6-30.6 51.3-55.8 68s-52.6 25-82.1 25c-41.9 0-77.8-15.5-107.7-46.5s-44.9-70.9-44.9-119.6c0-47.9 14.9-86.7 44.6-116.5zm165.4 26c-15.6-15.4-35.2-23.1-58.7-23.1s-43.7 7.6-60.6 22.8-27.9 35.6-33 61.2h181.5c-3.8-25.2-13.6-45.5-29.2-60.9zm133.1 253.3h279v48.7h-279zm-484.2 389.7c21.4 7.7 39.2 21.2 53.5 40.4s21.5 42.3 21.5 69.3c0 35.5-12.9 65-38.8 88.5s-62.5 35.3-110 35.3H548.6v-448.9h141.7c41 0 74.8 10.3 101.3 30.8s39.8 48.1 39.8 82.7c0 21.4-5 40.4-15.1 57.1-10 16.7-23 29.1-38.8 37.2zm-174.4-162.9v137.9h84c29.1 0 50.8-6.3 65.1-18.9s21.5-29.6 21.5-51c0-45.3-29.9-68-89.8-68zm94.3 343.7c64.5 0 96.8-25.7 96.8-77 0-26.1-8.6-45.5-25.7-58.4-17.1-12.8-40.8-19.2-71.2-19.2H603v154.5h94.4zm448.2-268h56.4v320.6h-37.2l-10.3-34h-8.3c-21.8 24.8-51.7 37.2-89.8 37.2-40.2 0-70.8-13.5-91.7-40.4-21-26.9-31.4-63.5-31.4-109.7v-173.8h56.4v154.5c0 80.4 25.9 120.6 77.6 120.6 52.2 0 78.2-35 78.2-105.2v-169.8zm195-55.8c-11.5 0-21.4-4.1-29.5-12.2s-12.2-17.7-12.2-28.9c0-11.5 4.1-21.3 12.2-29.2s18-11.9 29.5-11.9c11.1 0 20.7 4 28.9 11.9 8.1 7.9 12.2 17.6 12.2 29.2 0 11.1-4.1 20.7-12.2 28.9-8.2 8.1-17.8 12.2-28.9 12.2zm27.6 55.8v320.6h-56.4v-320.6zm101.9-134.7h55.8v455.3h-55.8zm388.6 0h54.5v455.3H1876l-12.2-41h-10.3c-22.2 29.5-52.8 44.2-91.7 44.2-41 0-76-15.5-104.8-46.5-28.9-31-43.3-70-43.3-117s14.4-86 43.3-117 63.8-46.5 104.8-46.5c41.5 0 73.7 17.1 96.8 51.3v-182.8zM1699.1 1458c-19.2 20.5-28.9 47.2-28.9 80.2 0 32.9 9.6 59.6 28.9 80.2s41.7 30.8 67.3 30.8c24.4 0 45.9-9.4 64.4-28.2 18.6-18.8 27.9-46.4 27.9-82.7s-9.3-63.9-27.9-82.7-40.1-28.2-64.4-28.2c-25.7-.2-48.1 10.1-67.3 30.6z" fill="#2f2e81"/></svg>