<svg enable-background="new 0 0 41 23" viewBox="0 0 41 23" xmlns="http://www.w3.org/2000/svg"><g fill="#fefffa"><path d="m37.4 17.9c0 .7-.5 1.2-1.2 1.2 0 0 0 0-.1 0 .7 0 1.2-.6 1.2-1.2s-.5-1.1-1.2-1.2h.1c.7 0 1.2.5 1.2 1.2z"/><path d="m37.3 17.9c0 .6-.5 1.2-1.2 1.2-.6 0-1.1-.6-1.1-1.2s.5-1.2 1.1-1.2c.7.1 1.2.6 1.2 1.2z"/><path d="m31.7 7.7v10.3h-.1v-10.3z"/><path d="m26.4 19.8c1.5-1.8 4-1.9 5.2-1.8-1.3 0-3.6.1-5.1 1.8-.3.3-.8.6-1.5.7.6-.1 1.1-.4 1.4-.7z"/><path d="m25.1 3.4c-2-.8-4.3-1.5-5.3-1.6 1 0 3.4.8 5.4 1.6.6.8 3.4 4.3 4.3 4.3h-.1c-1 0-3.7-3.5-4.3-4.3z"/><path d="m21.5 9.1c-.4-.3-.6-.6-.9-.9v-.1c.3.4.6.7 1 1 .1.1.2.1.4.1-.2 0-.3 0-.5-.1z"/><path d="m18.9 10.4c.2-.2.2-.5.2-.7.1-1.2.3-2.4.6-3.6.1-.2.2-.3.4-.4h.2c-.2 0-.4.2-.5.4-.3 1.2-.5 2.4-.6 3.6.1.3 0 .6-.3.7z"/><path d="m18.5 18.6c-.1 0-.1-.1-.2-.1.1 0 .2.1.2.1z"/><path d="m17.9 15.7c.1.2 0 .4-.1.6 0-.2.1-.3.1-.5z"/><path d="m17 14.4c.6.1 1 .7.9 1.3 0-.1 0-.2 0-.3-.1-.5-.5-.9-1-1z"/><path d="m17.5 16.8c-.3.2-.6.3-1 .3l-3.8-.1h3.8c.4.1.8-.1 1-.2z"/><path d="m15.4 6.4c.1 1 .2 1.8.3 2.5-.1-.7-.3-1.5-.3-2.5z"/><path d="m16.6 18.3h-3.1c-.5.1-.9.5-1 1-.1.3.1.6.2.9-.2-.2-.3-.4-.4-.6-.1-.6.4-1.2 1-1.3h3.1c.2-.1.2-.1.2 0l.8-.1c.3 0 .7.1 1 .3-.3-.1-.6-.2-.9-.2h-.8c-.1 0-.1 0-.1 0z"/><path d="m12.3 16.8c.1 0 .1.1.2.1-.1 0-.1 0-.2-.1z"/><path d="m12.3 16.8c-.4-.2-.7-.7-.6-1.1 0 .4.2.9.6 1.1z"/><path d="m12 10.4h4.3c.2 0 .6 0 1 .2-.3-.1-.6-.1-.8-.1h-4.4c-.6 0-1.1.5-1.2 1.1-.1.7.4 1.4 1.1 1.5h-.1c-.6-.1-1-.6-1.1-1.2-.1-.7.5-1.4 1.2-1.5z"/><path d="m1.7 8.7c.2.3.6.5 1 .5-.4 0-.8-.2-1.1-.4-.2-.2-.3-.5-.3-.8 0-.1 0-.1 0-.1 0 .3.2.6.4.8z"/></g><path d="m39.6 20.1v-14.5h-6.8v14.5zm-23-15.5c0 1.5 0 3.1.3 4.7.8.1 1.5.6 1.9 1.2 0 0 0-.1.1-.1v.1c.3-.2.4-.5.3-.8.1-1.2.3-2.4.6-3.6.1-.2.3-.4.5-.4s.4.2.5.4c.3.8.7 1.5 1.3 2 .3.2.4.5.2.8 0 .1-.1.1-.2.2 0 0-.1.1-.1.1-.1 0-.3 0-.4-.1-.4-.3-.7-.6-1-1v.1s0-.1-.1-.1c-.1.5-.2 1.1-.2 1.6.1.9-.4 1.7-1.2 2v.1c0 .7-.3 1.3-.7 1.7-.1.1-.1.1-.2.2l.1.1c.6.6.8 1.3.8 2 0 .6-.2 1.1-.5 1.6.8.3 1.4 1.2 1.3 2.1 0 .5-.1 1-.4 1.4h.1c1.9.1 3.7 0 5.1-.3.1 0 .2-.1.3-.1.7-.2 1.2-.4 1.5-.7 1.5-1.7 3.8-1.8 5.1-1.8h.1v-10.3h-.1-2.1c-.9 0-3.7-3.5-4.3-4.3-2-.8-4.4-1.6-5.4-1.6-.1 0-.1 0-.1 0-.1 0-.2 0-.3 0s-.3.1-.4.2c-.2.1-.3.1-.5.2-1 .5-1.7 1.3-1.9 2.4zm-.7 16.1c.3 0 .7 0 1.3.1.2 0 1.7-.1 1.7-1.3 0-.3-.1-.6-.3-.8 0 0 0 0-.1-.1s-.1-.1-.1-.1c-.3-.2-.6-.3-1-.3h-.8s0 0-.1 0h-3.1c-.6.1-1.1.7-1 1.3.1.2.2.5.4.6.2.2.4.4.7.5.7 0 1.5.1 2.4.1zm-3.2-6.3c-.5 0-1 .6-1 1.3-.1.4.2.9.6 1.1.1 0 .1.1.2.1s.1 0 .2.1l3.8.1c.4 0 .7-.1 1-.3.2-.1.3-.3.3-.5.1-.2.1-.4.1-.6.1-.6-.3-1.2-.9-1.3h-.1c-.1 0-.2 0-.3 0zm3.6-4h-4.3c-.7.1-1.3.8-1.2 1.5.1.6.5 1.1 1.1 1.2h.1 4.1.1c.5 0 1-.2 1.6-.4.2-.2.3-.5.3-.8 0-.7-.4-1-.8-1.2h-.1c-.3-.3-.7-.3-.9-.3zm-13.6-5c3.3-.1 10.4-.2 12.7-.2 0-.3.1-.5.1-.8.3-1.8 1.7-3.3 3.4-3.8 1.4-.4 5.6 1.2 6.8 1.7.1 0 .2.1.3.2 1 1.5 2.2 2.8 3.4 4h2.1v-1.5c0-.3.3-.6.6-.6h8c.3 0 .6.3.6.6v15.9c0 .3-.3.6-.6.6h-8c-.3 0-.6-.3-.6-.6v-1.6c-.9-.1-3 0-4.2 1.3-1.3 1.5-5.4 1.6-10.3 1.4-.1 0-.1 0-.1 0-.3-.1-.7-.1-1.1-.1-.9 0-1.7-.1-2.4-.1-1.3-.1-2.2-1.1-2.2-2.4 0-.5.2-1.1.5-1.5-.8-.4-1.2-1.3-1.2-2.2 0-.6.2-1.1.5-1.6-.9-.4-1.4-1.3-1.4-2.3 0-.5.2-1 .4-1.4h-7.3c-.7 0-1.4-.3-1.9-.8s-.7-1.1-.7-1.7c0-1.4 1.2-2.5 2.6-2.5zm12.7 1c-1.8 0-8.3 0-12.7.1-.7 0-1.4.5-1.4 1.3v.1s0 0 0 .1c0 .3.1.6.3.8.3.2.7.4 1.1.4h13c0-.1 0-.2 0-.3-.1-.7-.2-1.5-.3-2.5z" fill="#1d1d1b"/></svg>