<svg viewBox="0 0 176 129.92" xmlns="http://www.w3.org/2000/svg"><path d="m65.64 23.08c-1.8-.07-3.6-.19-5.4-.2a7.06 7.06 0 0 0 -2.49.33 3 3 0 0 1 -2.29 0 7.69 7.69 0 0 0 -3.46-.21c-1.23.1-2.47 0-3.71 0-.64 0-1.28.14-1.92.18a12.53 12.53 0 0 1 -1.55 0c-1.68-.1-2.33.49-2.1 2a15.41 15.41 0 0 1 0 4.11 1.43 1.43 0 0 0 0 .29c.12 1.22.22 2.44.39 3.65 0 .23.36.43.59.6s.53.35.79.52l-.69.42c-.2.13-.51.24-.57.42a7 7 0 0 0 -.53 2.08c0 1.23.19 2.46.24 3.7 0 .58-.15 1.16-.13 1.74 0 1.55.16 3.1.22 4.65 0 .54-.07 1.09-.09 1.63 0 2.12-.11 4.24-.11 6.36 0 1.41.13 2.82.12 4.22 0 2.41-.14 4.81-.12 7.21 0 1.33.21 2.66.3 4a2.38 2.38 0 0 1 -.11 1.05.75.75 0 0 0 .22 1c2 1.6 3.9 3.23 5.87 4.82q2.47 2 5 4a1.62 1.62 0 0 0 .9.26 1 1 0 0 1 1.11.88 9.42 9.42 0 0 0 .65 1.64c.18.38 0 .5-.28.69a6.2 6.2 0 0 0 -1.14.89c-1 1-1.93 2-2.89 2.94-.19.2-.38.39-.56.6-1 1.19-2 2.41-3 3.56-1.62 1.78-3.3 3.5-4.94 5.26-.35.38-.6.86-1 1.23-.72.71-1.18.67-1.9 0a3.49 3.49 0 0 0 -1-.76c-1.59-.66-2.61-2-3.85-3.09l-.94-.75c-1.38-1.15-2.83-2.24-4.11-3.49a6.22 6.22 0 0 0 -1.59-1.39 2.18 2.18 0 0 0 -.76-.26.74.74 0 0 1 -.79-.71 1.09 1.09 0 0 0 -.31-.58 18.5 18.5 0 0 0 -2.53-2.18 6.15 6.15 0 0 1 -2.42-3 4.2 4.2 0 0 1 -.29-2.52 7.43 7.43 0 0 0 .11-3.87c-.11-.33.19-.77.16-1.15a15.61 15.61 0 0 0 -.3-1.85 4.15 4.15 0 0 1 .06-2.18 2.86 2.86 0 0 0 -.23-2.82.82.82 0 0 1 -.07-.75 4.34 4.34 0 0 0 .46-2.67q0-2 0-4c0-1.63-.07-3.26-.07-4.89 0-.68.18-1.37.17-2.05 0-1-.16-2-.19-3 0-1.32 0-2.64 0-4a8.31 8.31 0 0 0 -.06-.88 4.26 4.26 0 0 1 -.11-.66c.12-2.27.25-4.54.38-6.81a1.1 1.1 0 0 0 0-.44c-.67-1.72.27-2.92 1.33-4a19.58 19.58 0 0 1 1.56-1.38c1.22-1 2.44-2.09 3.68-3.12.85-.71 1.77-1.34 2.59-2.08 1.24-1.12 2.4-2.31 3.62-3.45.36-.33.83-.53 1.2-.85.17-.15.23-.45.33-.68a4.53 4.53 0 0 0 -.79-.29c-.49 0-1 0-1.48 0-1.14 0-2.28 0-3.41 0-1.7 0-3.4-.13-5.1-.11s-3.44.15-5.15.23h-.22c-1.77-.07-3.55-.2-5.32-.21-1.58 0-3.16.16-4.74.2-1.06 0-2.13 0-3.19 0q-2.09-.11-4.16-.11a5.61 5.61 0 0 1 -1.25-.13c-1-.26-1.2-.91-.64-1.74.85-1.25 1.71-2.49 2.57-3.73.07-.1.14-.25.24-.28 1.55-.52 1.63-2.19 2.61-3.12a9 9 0 0 0 .83-.83c.71-.88 1.39-1.79 2.1-2.67 1.3-1.6 2.53-3.26 4-4.72a3.94 3.94 0 0 1 2.37-.85c1.67-.13 3.37 0 5.05 0 .69 0 1.38-.14 2.07-.21a2.79 2.79 0 0 1 .59 0 18.25 18.25 0 0 0 5.9 0 1.6 1.6 0 0 1 .52 0c3.74.48 7.49 0 11.24.12 1.78.06 3.58-.24 5.34-.07a28.27 28.27 0 0 0 3.49 0c2.85-.06 5.7.19 8.56.3.29 0 .59-.08.89-.09h3.27c.54 0 1.08-.1 1.63-.15.17 0 .38-.13.51-.07 1.27.66 2.6-.11 3.89.2a4.74 4.74 0 0 0 1.1-.1h1.67 2.36s1.39-.17 2.08-.15c1.7.06 3.39.16 5.09.29a1 1 0 0 1 .76 1.6c-.61.93-1.3 1.8-2 2.68s-1.25 1.6-1.92 2.36c-.86 1-1.8 1.91-2.64 2.92a6.32 6.32 0 0 0 -.68 1.43c-.07.15-.11.41-.2.43-.69.12-.89.74-1.28 1.16s-1.1 1-1.6 1.51a7.41 7.41 0 0 0 -.67 1 5.1 5.1 0 0 1 -.61.83c-.44.43-1 .77-1.38 1.23a2.44 2.44 0 0 1 -2.24.91 14 14 0 0 0 -1.49 0z"/><path d="m139.08 38.28c-.22.55-.38.95-.52 1.35a3.53 3.53 0 0 0 -.28 1q-.11 2.9-.16 5.81c0 .54.13 1.08.16 1.63s0 1.08 0 1.63v6.07 4.52s0 3 0 4.53q0 3.33.12 6.66c.06 2.48.14 5 .2 7.43v2.88 4.82a10.39 10.39 0 0 1 -.19 1.92 2.65 2.65 0 0 0 1.9 3.23 18.65 18.65 0 0 1 1.94.91c.58.27 1.17.54 1.77.77a5.81 5.81 0 0 1 1.27.41c1.81 1.29 4.08 1.48 6 2.6a38.61 38.61 0 0 0 3.86 1.7c.9.41 1.77.89 2.66 1.34a2 2 0 0 0 .48.19 14.74 14.74 0 0 1 5.43 2.48 1.77 1.77 0 0 1 0 3.07 1.92 1.92 0 0 0 -.46.56c-.41.68-.79 1.37-1.19 2.05a11.64 11.64 0 0 1 -1.41 2.33c-1.27 1.31-1.6 3.22-3 4.45a11.85 11.85 0 0 0 -1.66 2.28 1.6 1.6 0 0 1 -2.17.75c-.89-.32-1.74-.79-2.62-1.15-1.28-.52-2.58-1-3.87-1.52-.41-.16-.8-.38-1.2-.56l-5.68-2.55-2.38-1c-1.47-.66-2.92-1.35-4.4-2s-3.12-1.21-4.65-1.87c-.77-.33-1.48-.79-2.22-1.19-.46-.25-.91-.51-1.38-.72-1.15-.51-2.32-1-3.48-1.49-.09 0-.18-.12-.27-.11-1.13.07-1.85-.82-2.78-1.2a2.58 2.58 0 0 1 -1.51-2.47c-.07-1.09-.1-2.18-.12-3.28a2.49 2.49 0 0 1 .12-.58c0-.19.17-.41.12-.57-.75-2.2.11-4.4 0-6.59-.07-1.72-.1-3.44-.12-5.16a12.73 12.73 0 0 0 .09-1.41c-.07-.54-.32-1.05-.44-1.59a1.65 1.65 0 0 1 .06-.71 7.08 7.08 0 0 0 .36-1.33c0-1.56 0-3.12 0-4.68 0-.61-.22-1.21-.23-1.82s.12-1.41.15-2.12a11.73 11.73 0 0 0 -.08-1.31 3.85 3.85 0 0 1 -.05-.51c0-.55.11-1.11.13-1.66 0-.79 0-1.58 0-2.37 0-1.23-.11-2.46-.09-3.69 0-.79.16-1.57.24-2.36a1.27 1.27 0 0 0 0-.66c-.68-1.27-.14-2.53 0-3.8 0-.42 0-.84 0-1.27 0-1 0-2.07 0-3.11-.05-1.65-.15-3.29-.22-4.94a2.64 2.64 0 0 1 .74-2.15c1.57-1.62 3.57-2.63 5.35-4 1.23-.92 2.41-1.89 3.63-2.82.59-.45 1.21-.86 1.82-1.28l3.29-2.28a.77.77 0 0 1 .18-.13c1.73-.53 2.84-1.93 4.18-3a3.5 3.5 0 0 1 .66-.32 6.48 6.48 0 0 0 1-.51c1.52-1.11 3-2.29 4.53-3.36 1.24-.86 2.55-1.62 3.85-2.39a2.85 2.85 0 0 1 2.94.29c1.05.77 2.16 1.47 3.26 2.18 1.48 1 3 1.89 4.46 2.83h.06c1.56.54 2.66 1.79 4 2.6 1.77 1 3.57 2 5.32 3.12 1.15.7 2.23 1.52 3.37 2.25.85.54 1.75 1 2.6 1.54s1.12 1 .56 2a37.63 37.63 0 0 1 -2.36 3.51c-.74 1-1.54 2-2.35 2.91-.35.41-.82.73-1.15 1.15-1.16 1.48-2.29 3-3.44 4.48s-2.33 1.74-4 .61c-2.35-1.59-4.76-3.09-7.15-4.63-.48-.31-.92-.67-1.4-1l-5.26-3.42c-.64-.42-1.24-.89-1.88-1.29q-2.28-1.43-4.59-2.81a1.54 1.54 0 0 0 -.45-.1z"/><path d="m106.8 30.52c-.1 1.23-.23 2.46-.29 3.69 0 .64.09 1.29.1 1.93v5c0 .79.08 1.59.11 2.38q.08 2 .15 4v.75c0 1.38 0 2.76-.06 4.13v1.18c0 1.06.1 2.11.1 3.17 0 .81-.1 1.62-.14 2.42a8.79 8.79 0 0 0 0 2.76 7.17 7.17 0 0 1 0 2.75 31.36 31.36 0 0 0 .15 3.79s0 .06 0 .07c-.65 1.07-.13 2.2-.17 3.3-.06 1.76 0 3.52.05 5.29 0 .66.11 1.32.16 2a2.87 2.87 0 0 1 0 .44c-.07.93-.18 1.85-.21 2.78v3.58 1c0 1.31.09 2.62.13 3.92 0 1.46.11 2.92.11 4.38 0 .46-.24.92-.24 1.38 0 1.71.11 3.41.16 5.12a3.74 3.74 0 0 1 -.1.73 2.92 2.92 0 0 0 -.18 1.09c.25 1-.25 1.47-.9 2-1.23 1-2.37 2.17-3.6 3.21-1.38 1.17-2.82 2.27-4.22 3.42-1.2 1-2.38 2-3.57 3a2.92 2.92 0 0 1 -.28.25 58.16 58.16 0 0 0 -5.4 4.53c-1.61 1.35-3.16 2.76-4.83 4a20 20 0 0 1 -3.1 1.76 1.08 1.08 0 0 1 -.91 0c-1.43-.92-2.82-1.9-4.24-2.84a31 31 0 0 1 -4-2.68c-1.14-1.06-2.66-1.29-3.86-2.28-.94-.78-2-1.49-3-2.26-1.57-1.2-3.39-2.09-5.06-3.18-.93-.6-1.73-1.39-2.64-2-1.41-1-2.87-1.94-4.31-2.9a2.11 2.11 0 0 0 -.46-.24 2.18 2.18 0 0 1 -1.4-3.27 1.13 1.13 0 0 1 .3-.42c.73-.55 1.51-1 2.19-1.64s1-1.13 1.54-1.69c.83-.88 1.71-1.72 2.52-2.63a36.21 36.21 0 0 1 5.18-4.69 1.28 1.28 0 0 1 1.63-.14l2.35 1.44c.08.05.15.14.24.17 1.83.63 3.1 2.17 4.83 3a24.12 24.12 0 0 1 2.72 1.77l6.19 4c1.63 1.07 3.25 2.15 4.9 3.19.26.16.77.27.93.13a1.4 1.4 0 0 0 .3-1c0-1.63-.07-3.25-.12-4.88 0-1.27-.1-2.55-.09-3.82s.09-2.33.11-3.5c0-1.83 0-3.67 0-5.5a42.44 42.44 0 0 0 .06-5 34 34 0 0 1 .06-4.65c.06-2.05 0-4.11 0-6.16a2.27 2.27 0 0 0 -.1-1 4.73 4.73 0 0 1 -.15-2.55c.08-1.3.06-2.61.06-3.92 0-1.05-.08-2.11 0-3.16 0-1.43.19-2.86.23-4.3 0-1-.07-2-.09-3 0-1.23 0-2.46-.06-3.68s-.09-2.53-.08-3.79.07-2.73.18-4.09a1.72 1.72 0 0 1 .57-1c.69-.61 1.45-1.16 2.19-1.71 1-.77 2.08-1.52 3.12-2.28l3.2-2.37a1.77 1.77 0 0 0 .31-.21c1.19-1.38 2.84-2.12 4.3-3.13s2.76-2 4.22-2.9 2.22-.04 2.21 1.56z"/></svg>